<?xml version="1.0" encoding="UTF-8" standalone="no"?>
<!-- Created with Inkscape (http://www.inkscape.org/) -->

<svg
   width="210mm"
   height="297mm"
   viewBox="0 0 210 297"
   version="1.1"
   id="svg5"
   sodipodi:docname="icon.svg"
   inkscape:export-filename="C:\Users\jetem\Desktop\uni\comp3130 mobile\ass1\icon.png"
   inkscape:export-xdpi="500"
   inkscape:export-ydpi="500"
   inkscape:version="1.1.2 (b8e25be833, 2022-02-05)"
   xmlns:inkscape="http://www.inkscape.org/namespaces/inkscape"
   xmlns:sodipodi="http://sodipodi.sourceforge.net/DTD/sodipodi-0.dtd"
   xmlns="http://www.w3.org/2000/svg"
   xmlns:svg="http://www.w3.org/2000/svg">
  <sodipodi:namedview
     id="namedview7"
     pagecolor="#ffffff"
     bordercolor="#666666"
     borderopacity="1.0"
     inkscape:pageshadow="2"
     inkscape:pageopacity="0.0"
     inkscape:pagecheckerboard="0"
     inkscape:document-units="mm"
     showgrid="true"
     inkscape:snap-intersection-paths="true"
     inkscape:zoom="0.35355339"
     inkscape:cx="535.98693"
     inkscape:cy="369.10974"
     inkscape:window-width="1368"
     inkscape:window-height="850"
     inkscape:window-x="-6"
     inkscape:window-y="-6"
     inkscape:window-maximized="1"
     inkscape:current-layer="layer1">
    <inkscape:grid
       type="xygrid"
       id="grid42" />
  </sodipodi:namedview>
  <defs
     id="defs2">
    <inkscape:path-effect
       effect="bspline"
       id="path-effect1109"
       is_visible="true"
       lpeversion="1"
       weight="33.333333"
       steps="2"
       helper_size="0"
       apply_no_weight="true"
       apply_with_weight="true"
       only_selected="false" />
    <inkscape:path-effect
       effect="bspline"
       id="path-effect893"
       is_visible="true"
       lpeversion="1"
       weight="33.333333"
       steps="2"
       helper_size="0"
       apply_no_weight="true"
       apply_with_weight="true"
       only_selected="false" />
  </defs>
  <g
     inkscape:label="Layer 1"
     inkscape:groupmode="layer"
     id="layer1">
    <path
       id="path5257"
       style="fill:#ffffff;stroke:#000000;stroke-width:0.264583px;stroke-linecap:butt;stroke-linejoin:miter;stroke-opacity:1"
       d="m 51.513008,152.1351 c 3.64842,0.0287 5.25787,-1.8821 5.29167,-5.29167 l 0.08074,3.2e-4 v 5.29166 l -5e-6,0 c -0.02871,3.64842 1.8821,5.25787 5.29167,5.29167 l 2e-6,0 v -5.29167 l -2e-6,0 v -5.29166 -5.29167 l 2e-6,0 h -5.291667 l -2e-6,0 c -3.648418,-0.0287 -5.257856,1.8821 -5.291666,5.29167 v 0 c 0.0519,-3.69667 -1.928192,-5.22997 -5.291667,-5.29167 l 2e-6,0 h -5.291667 l -10e-7,0 v 5.29167 5.29167 l -1e-6,-1e-5 c -3.527769,1e-5 -5.291668,1.76389 -5.291666,5.29167 h 5.291667 c 3.618377,0.0223 5.266442,-1.85311 5.291666,-5.29166 l 2e-6,-1e-5 v -5.29166 h -5e-6 c -0.02871,3.64842 1.8821,5.25787 5.29167,5.29167 z"
       sodipodi:nodetypes="ccccccccccccccccccccccccccccccc" />
    <path
       style="fill:none;stroke:#000000;stroke-width:0.264583px;stroke-linecap:butt;stroke-linejoin:miter;stroke-opacity:0"
       d="m 34.395833,138.90625 c 34.395833,0 34.395833,0 34.395833,0 v 21.16666 H 34.395833 v -21.16666"
       id="path393" />
  </g>
</svg>
